<?xml version="1.0" encoding="utf-8"?>
<!-- Generator: Adobe Illustrator 24.3.0, SVG Export Plug-In . SVG Version: 6.00 Build 0)  -->
<svg version="1.1" id="Layer_1" xmlns="http://www.w3.org/2000/svg" xmlns:xlink="http://www.w3.org/1999/xlink" x="0px" y="0px"
	 viewBox="0 0 925.3 663.8" style="enable-background:new 0 0 925.3 663.8;" xml:space="preserve">
<style type="text/css">
	.st0{fill:#061344;}
	.st1{fill:#FFFFFF;}
	.st2{fill:#428DFC;}
	.st3{fill:#CCCCCC;}
</style>
<path class="st0" d="M123.6,437.8h-40c-12.6,0-22.9-10.3-22.9-22.9v-29.9c0-12.6,10.3-22.9,22.9-22.9h40c12.6,0,22.9,10.3,22.9,22.9
	v29.9C146.5,427.4,136.2,437.8,123.6,437.8z"/>
<path class="st1" d="M470.4,295.7H161.3c-18.4,0-33.5-15.1-33.5-33.5V68.1c0-18.4,15.1-33.5,33.5-33.5h309.2
	c18.4,0,33.5,15.1,33.5,33.5v194.1C503.9,280.6,488.9,295.7,470.4,295.7z"/>
<path class="st2" d="M840.8,527.8H617.6c-22.5,0-40.9-18.4-40.9-40.9V323.2c0-22.5,18.4-40.9,40.9-40.9h223.2
	c22.5,0,40.9,18.4,40.9,40.9v163.6C881.7,509.4,863.3,527.8,840.8,527.8z"/>
<path class="st0" d="M845.1,469.8c0,0-2.7-1.2-25.7-13.1c-23-11.9-34.5-15.3-43-16.2c-8.5-0.8-20.4,1.5-27.4,4.4
	c-7,2.9-29.8,11.4-39.8,12.8c-10,1.4-21.9-2.9-26.9-4.9c-4.9-2-41.5-24.4-41.5-24.4s-8.1,89-11.2,117.7h183.5
	c17.8,0,32.3-14.5,32.3-32.3v-43.1C845.3,470.1,845.1,469.8,845.1,469.8z"/>
<path class="st2" d="M421.7,340.9c0,0-28.8,5.6-49,14.9s-38.3,20-38.3,20s19.1-48,22.7-58c3.7-9.9,10.9-21.9,10.9-21.9
	s-9.4-12.1-9.5-18c0,0-19.2-2.4-32.1-11.6c0,0-9.4-3.9-11.1-7.7c0,0-19.2-14.2-17.8-26.9c0,0-13.4,21.3-29.4,63.9
	c-16,42.6-25.3,59.9-17.9,106.7c7.3,46.8,47.6,59.4,56.1,61.4s23.4,6.2,38.6,3.3c15.2-2.9,29.3-9.1,29.3-9.1l-4.4,34.2l-16.5,151.7
	h218.3l-8.5-85.4c0,0,8.8,22.2,23,30.6c14.2,8.4,32.3,9.4,48.6,0.7c16.3-8.7,24.3-25.7,25.8-38.7c1.6-12.9,1-30.6-4.3-54.3
	c-5.3-23.7-22.2-95.9-22.2-95.9l-50.1-24c0,0-17.5-26.4-44.5-32.6c-26.9-6.1-26.9-6.1-26.9-6.1L421.7,340.9z"/>
<path class="st1" d="M633.4,402.8c0,0,1.7-16.4-6-28.4c-7.7-12.1-13.6-18.6-15.6-22.1c-2-3.5-1.1-19.1-2.5-25
	c-1.4-5.9-3.2-15-13.8-13.2s-13.4,15.6-11.8,24.6c1.7,9,8.1,30.1,7.7,33s-17.2,13.5-26.1,16.8c-9,3.3-26.1,9.4-30.5,16.3
	c-4.4,6.9-2.9,15.9,5.7,16.7c0,0-11.1,5.8-8.8,14c2.3,8.2,9.9,7.1,9.9,7.1s-1.9,12,10.4,13.5c12.2,1.5,35.6-6.9,43.6-11.2
	c8.1-4.3,22.2-11.7,28.3-20.7C629.9,415.1,633.6,404.7,633.4,402.8z"/>
<path class="st1" d="M427.7,262.5c0,0-18.5-3.5-19,12.6c-0.5,16.1,16,16,20.9,12.7c0,0-0.3,37.8,37.2,37.2
	c37.5-0.6,38.5-31.8,38.5-31.8v-4.7c0,0,17,5.3,20-5.9c3-11.1,1.1-15.6-3.2-18c-4.3-2.4-15.4-1.7-15.4-1.7v-3.9
	c0,0-12.8-13.9-33.2-22.1c-20.3-8.2-30.7-9.3-30.7-9.3s-8.2,20.8-13.9,25.3L427.7,262.5z"/>
<polygon class="st1" points="440.8,310.4 440.8,321 421.7,340.9 435.1,414.7 467.7,367.8 500.4,414.7 513.5,339.4 494.6,320.4 
	494.8,311.4 "/>
<circle class="st1" cx="764.5" cy="362.6" r="26.9"/>
<path class="st1" d="M481.6,627.9H113.4c-11.1,0-20.1-9.1-20.1-20.1V522c0-11.1,9.1-20.1,20.1-20.1h368.2c11.1,0,20.1,9.1,20.1,20.1
	v85.8C501.7,618.9,492.7,627.9,481.6,627.9z"/>
<path class="st0" d="M173.7,564.9c0,12-9.7,21.7-21.7,21.7s-21.7-9.7-21.7-21.7c0-12,9.7-21.7,21.7-21.7S173.7,552.9,173.7,564.9z"
	/>
<path class="st0" d="M466.6,34.6H165.1c-20.5,0-37.3,16.8-37.3,37.3v25.1h376.1V71.9C503.9,51.4,487.1,34.6,466.6,34.6z"/>
<path class="st0" d="M422.8,260.4c0,0-3.1-17.7-2.9-22.7c0.2-5.1,3.9-19.1,8-21.1c4.1-2,5.5-2.3,5.5-2.3s9.3-15,31-15.1
	c21.7-0.1,37.5,8.5,44,19.9c6.4,11.5,5.1,29,5.1,34.2c0,5.2-1.2,8.7-1.2,8.7l-5.7,0.3l-0.4-3.2c0,0-18.2-17.9-38.5-24.3
	c-20.3-6.4-24.9-7.1-24.9-7.1s-6.4,18.9-13.9,25.3l-0.3,9.3L422.8,260.4z"/>
<path class="st1" d="M365,255.2c0,0,12.9,6.7,18.6,15.5c5.6,8.7,7.1,29.2-4.2,30c-11.3,0.8-16.4-12.3-17.8-16.1
	c-1.4-3.8-1.9-8.5-10.7-11.4c-8.8-3-28.4-5.8-31.9-11.6c-3.6-5.8-9.5-9.3-9.2-28.3c0,0-6.1-19.7,3-28c9.1-8.3,19.4-8.1,37.9-7.6
	c18.5,0.5,31.8-8.7,40.3-12.3c8.5-3.6,21.7-10.6,29.1-6.7c7.3,3.9,2,14.1,2,14.1s6.5,2.3,8.5,7.6c2,5.4-5.5,15.7-5.5,15.7
	s4.3,1.2,5.5,8.4c1.1,7.3-9.4,14-18.7,16.5c-9.3,2.5-32.3,5.4-37.1,5.8S362,250.5,365,255.2z"/>
<path class="st2" d="M475.3,66.4c0,7.3-5.9,13.3-13.3,13.3c-7.3,0-13.3-5.9-13.3-13.3s5.9-13.3,13.3-13.3
	C469.3,53.2,475.3,59.1,475.3,66.4z"/>
<circle class="st2" cx="544.8" cy="89.2" r="13.7"/>
<path class="st2" d="M867.6,207.9c0,7.6-6.1,13.7-13.7,13.7c-7.6,0-13.7-6.1-13.7-13.7c0-7.6,6.1-13.7,13.7-13.7
	C861.5,194.2,867.6,200.3,867.6,207.9z"/>
<circle class="st3" cx="417.1" cy="66.4" r="13.3"/>
<circle class="st1" cx="372.4" cy="66.4" r="13.3"/>
<path class="st0" d="M307,223c0,0-8.3,1.5-9.5,8.7c-1.2,7.2,11.7,22.9,14.9,24.5h2.3c0,0-6.5-14.5-4.3-22.4L307,223z"/>
<path class="st0" d="M334.5,269.8c0,0,8.5,0.1,14.3,2.5c5.8,2.4,8.3,4.1,8.3,4.1S345.4,277.3,334.5,269.8z"/>
<path class="st0" d="M370.7,247.7c0,0-6.9,2.2-6.3,6.1c0,0,12.1,8.2,14.4,10.6c2.3,2.4,4,4.1,4,4.1S383,257.3,370.7,247.7z"/>
<circle class="st0" cx="699.1" cy="148.2" r="13.9"/>
<path class="st1" d="M506.6,262.3l5.7-0.3c0,0,1.2-3.5,1.2-8.7c0-5.2,1.3-22.7-5.1-34.2c-5.4-9.7-17.5-17.2-34.2-19.3
	c11.2,4.9,23.1,12.4,20.7,22.2c-3.6,14.3-53.7,4.8-53.7,4.8l1.3,1.8c0.2-0.5,0.3-0.8,0.3-0.8s4.7,0.7,24.9,7.1
	c20.3,6.4,38.5,24.3,38.5,24.3L506.6,262.3z"/>
<g>
	<g>
		<path class="st0" d="M845.5,471.8c-0.2,0-0.4,0-0.6-0.1L798,447.7c-11.2-5.7-29.9-7.1-41.8-3.1l-35.1,11.9
			c-12.5,4.2-31.9,2.2-43.2-4.6l-37.7-22.4c-0.6-0.4-0.9-1.2-0.5-1.8c0.4-0.6,1.2-0.8,1.8-0.5l37.7,22.4c10.8,6.4,29.2,8.3,41,4.3
			l35.1-11.9c12.5-4.2,32.2-2.8,43.9,3.2l46.9,23.9c0.7,0.3,0.9,1.1,0.6,1.8C846.4,471.5,846,471.8,845.5,471.8z"/>
	</g>
	<g>
		<path class="st0" d="M756.2,398.5c-15.6,0-28.3-12.7-28.3-28.3s12.7-28.3,28.3-28.3c15.6,0,28.3,12.7,28.3,28.3
			S771.8,398.5,756.2,398.5z M756.2,344.6c-14.1,0-25.6,11.5-25.6,25.6c0,14.1,11.5,25.6,25.6,25.6c14.1,0,25.6-11.5,25.6-25.6
			C781.7,356.1,770.3,344.6,756.2,344.6z"/>
	</g>
</g>
<g>
	<path class="st0" d="M500.4,416.1c-0.4,0-0.8-0.2-1.1-0.6l-31.6-45.4l-31.5,45.4c-0.3,0.4-0.9,0.7-1.4,0.5c-0.5-0.1-0.9-0.5-1-1.1
		l-14.1-73.8c-0.1-0.4,0.1-0.9,0.4-1.2l19.8-20c0.3-0.3,0.7-0.4,1.1-0.4c0.4,0.1,0.8,0.3,1,0.7l25.7,44.8l25.9-45.3
		c0.2-0.4,0.6-0.6,1-0.7c0.4-0.1,0.8,0.1,1.1,0.4l18.7,19c0.3,0.3,0.4,0.7,0.4,1.2L501.7,415c-0.1,0.5-0.5,1-1,1.1
		C500.6,416.1,500.5,416.1,500.4,416.1z M422.4,341.4l13.4,70l30.3-43.6l-25.6-44.6L422.4,341.4z M469.3,367.7l30.3,43.6l12.4-71.4
		l-17-17.2L469.3,367.7z"/>
</g>
<g>
	<path class="st0" d="M475.5,303.9c-3.2,0-5.7-0.6-5.9-0.6c-0.7-0.2-1.2-0.9-1-1.6s0.9-1.2,1.6-1c0.1,0,8.8,2,14.2-1.8
		c2.4-1.7,3.8-4.2,4.2-7.7c0.1-0.7,0.7-1.3,1.5-1.2c0.7,0.1,1.3,0.8,1.2,1.5c-0.5,4.2-2.3,7.4-5.4,9.6
		C482.8,303.4,478.8,303.9,475.5,303.9z"/>
</g>
<g>
	<path class="st0" d="M334,469.1c-11.5,0-21.4-2.1-30.6-4.7c-33.8-9.6-54.2-38.5-57.5-81.5c-2.4-30.6,8.9-60.6,20.3-86
		c4.3-9.7,7.5-17.6,10.6-25.3c5.7-14.2,10.5-26.4,20.6-43.6c0.4-0.6,1.2-0.8,1.8-0.5c0.6,0.4,0.9,1.2,0.5,1.8
		c-10,17-14.8,29.1-20.4,43.2c-3.1,7.7-6.3,15.7-10.6,25.4c-11.3,25-22.5,54.6-20.1,84.6c3.3,41.8,23,69.9,55.6,79.1
		c18,5.1,38.9,8.2,69.3-3.3c0.7-0.3,1.5,0.1,1.7,0.8c0.3,0.7-0.1,1.5-0.8,1.7C358.8,466.9,345.6,469.1,334,469.1z"/>
</g>
<g>
	<path class="st0" d="M330.2,396.1c-0.9-0.1-1.4-0.8-1.3-1.5c2.9-19.7,10.4-36.8,13.7-44.1c0.6-1.3,1-2.3,1.3-3l11.3-28.2
		c3-7.5,6.7-14.3,10.6-21.6l1.3-2.4c0.4-0.7,1.2-0.9,1.8-0.6c0.7,0.4,0.9,1.2,0.6,1.8L368,299c-3.9,7.2-7.5,14-10.4,21.3l-11.3,28.2
		c-0.3,0.7-0.8,1.8-1.3,3.1c-3.4,7.8-10.6,24.1-13.5,43.4C331.4,395.6,330.8,396.1,330.2,396.1z"/>
</g>
<g>
	<g>
		<circle class="st0" cx="36.8" cy="153.6" r="5.9"/>
		<path class="st0" d="M82.4,159.8c3.4,0,6.2-2.8,6.2-6.2c0-3.4-2.8-6.2-6.2-6.2c-3.4,0-6.2,2.8-6.2,6.2
			C76.2,157,79,159.8,82.4,159.8z"/>
		<circle class="st0" cx="127.9" cy="153.6" r="5.7"/>
		<path class="st0" d="M36.8,205.4c3.4,0,6.2-2.8,6.2-6.2c0-3.4-2.8-6.2-6.2-6.2c-3.4,0-6.2,2.8-6.2,6.2
			C30.6,202.6,33.4,205.4,36.8,205.4z"/>
		<circle class="st0" cx="82.4" cy="199.2" r="6.5"/>
		<circle class="st0" cx="127.9" cy="199.2" r="6"/>
		<path class="st0" d="M36.8,250.5c3.2,0,5.7-2.6,5.7-5.7c0-3.2-2.6-5.7-5.7-5.7c-3.2,0-5.7,2.6-5.7,5.7
			C31.1,248,33.6,250.5,36.8,250.5z"/>
		<path class="st0" d="M82.4,250.8c3.3,0,6-2.7,6-6c0-3.3-2.7-6-6-6s-6,2.7-6,6C76.3,248.1,79,250.8,82.4,250.8z"/>
		<path class="st0" d="M127.9,250.4c3.1,0,5.6-2.5,5.6-5.6c0-3.1-2.5-5.6-5.6-5.6s-5.6,2.5-5.6,5.6
			C122.3,247.9,124.8,250.4,127.9,250.4z"/>
	</g>
</g>
<g>
	<path class="st0" d="M824.8,646.1h-692c-0.7,0-1.3-0.6-1.3-1.3c0-0.7,0.6-1.3,1.3-1.3h692c0.7,0,1.3,0.6,1.3,1.3
		C826.1,645.5,825.5,646.1,824.8,646.1z"/>
</g>
<path class="st0" d="M448.7,262.7c1.1-0.2,1.8,0.3,2.1,4.2c0.3,4.3-0.8,5.1-1.7,5c-1,0-1.9-1.4-1.9-4.5
	C447.2,264.3,447.3,262.9,448.7,262.7z"/>
<g>
	<path class="st0" d="M422.5,290.9c-0.3,0-0.6,0-1,0c-4.1-0.3-7.9-2.1-10.6-5.2c-2.7-3.1-4.1-7-3.8-11.1c0.3-4.1,2.1-7.9,5.2-10.6
		c3.1-2.7,7-4.1,11.1-3.8c1.6,0.1,3.2,0.5,4.7,1.1c0.7,0.3,1,1.1,0.8,1.7c-0.3,0.7-1.1,1-1.7,0.8c-1.3-0.5-2.6-0.8-3.9-0.9
		c-3.4-0.2-6.6,0.9-9.2,3.1c-2.5,2.2-4.1,5.3-4.3,8.7c-0.2,3.4,0.9,6.6,3.1,9.2c2.2,2.5,5.3,4.1,8.7,4.3c2.3,0.1,4.6-0.3,6.6-1.4
		c0.7-0.3,1.5-0.1,1.8,0.6c0.3,0.7,0.1,1.5-0.6,1.8C427.4,290.3,424.9,290.9,422.5,290.9z"/>
</g>
<g>
	<path class="st0" d="M419.4,284c-0.4,0-0.8-0.2-1.1-0.5c-0.5-0.6-0.3-1.4,0.2-1.9l8.1-6.2l-9-6.7c-0.6-0.4-0.7-1.3-0.3-1.9
		c0.4-0.6,1.3-0.7,1.9-0.3l10.5,7.7c0.3,0.2,0.5,0.6,0.5,1.1s-0.2,0.8-0.5,1.1l-9.5,7.3C420,283.9,419.7,284,419.4,284z"/>
</g>
<g>
	<path class="st0" d="M513.1,290.9c-2.5,0-4.9-0.6-7.1-1.7c-0.7-0.3-0.9-1.2-0.6-1.8c0.3-0.7,1.2-0.9,1.8-0.6c2,1.1,4.3,1.5,6.6,1.4
		c3.4-0.2,6.5-1.7,8.7-4.3c2.2-2.5,3.4-5.8,3.1-9.2c-0.4-7-6.6-12.3-13.5-11.9c-1.4,0.1-2.8,0.4-4.2,1c-0.7,0.3-1.5,0-1.8-0.7
		c-0.3-0.7,0-1.5,0.7-1.8c1.6-0.7,3.3-1.1,5-1.2c8.5-0.6,15.8,5.9,16.3,14.4c0.5,8.5-5.9,15.8-14.4,16.3
		C513.7,290.9,513.4,290.9,513.1,290.9z"/>
</g>
<g>
	<path class="st0" d="M516.2,284c-0.3,0-0.6-0.1-0.8-0.3l-9.5-7.3c-0.3-0.3-0.5-0.7-0.5-1.1s0.2-0.8,0.5-1.1l10.5-7.7
		c0.6-0.4,1.4-0.3,1.9,0.3c0.4,0.6,0.3,1.4-0.3,1.9l-9,6.7l8.1,6.2c0.6,0.5,0.7,1.3,0.2,1.9C517,283.8,516.6,284,516.2,284z"/>
</g>
<g>
	<path class="st0" d="M609.2,597c-17,0-35.3-8.4-47.4-38c-0.3-0.7,0-1.5,0.7-1.8c0.7-0.3,1.5,0.1,1.8,0.7c12.5,30.6,33,42,61,33.9
		c47.1-13.5,34.2-73.3,29.9-93c-6.2-28.7-23.1-99.8-23.3-100.6c-0.2-0.7,0.3-1.4,1-1.6c0.7-0.2,1.4,0.3,1.6,1
		c0.2,0.7,17,71.9,23.3,100.6c4.4,20.3,17.8,81.9-31.8,96.2C620.9,596,615.1,597,609.2,597z"/>
</g>
<g>
	<path class="st0" d="M470.4,326.4H465c-6.8,0-16.4-1.4-24.2-8c-5.9-5.1-9.8-13.2-12-24.9c-1.4-7.7-1.7-32.2-1.6-40.2
		c0-0.7,0.6-1.3,1.3-1.3c0.8,0,1.4,0.6,1.3,1.4c-0.1,8.6,0.2,32.5,1.6,39.6c2,11.1,5.7,18.7,11.1,23.4c7.1,6.1,16.1,7.4,22.4,7.4
		h5.4c6.3,0,15.3-1.3,22.4-7.4c5.4-4.7,9.1-12.3,11.1-23.4c1.4-7.7,1.5-27,1.4-33.8c0-0.7,0.6-1.4,1.3-1.4c0.9,0,1.4,0.6,1.4,1.3
		c0.1,6.8,0.1,26.4-1.4,34.3c-2.1,11.7-6.1,19.9-12,24.9C486.8,325,477.1,326.4,470.4,326.4z"/>
</g>
<g>
	<path class="st0" d="M440.8,322.3c-0.8,0-1.4-0.6-1.3-1.4l0-4.4c0-0.7,0.6-1.3,1.3-1.3c0.8,0,1.4,0.6,1.3,1.4l0,4.4
		C442.2,321.7,441.6,322.3,440.8,322.3z"/>
</g>
<g>
	<path class="st0" d="M494.6,321.8c-0.8,0-1.4-0.6-1.3-1.4l0.1-3.9c0-0.7,0.5-1.4,1.4-1.3c0.7,0,1.3,0.7,1.3,1.4l-0.1,3.8
		C495.9,321.2,495.4,321.8,494.6,321.8z"/>
</g>
<g>
	<path class="st0" d="M512.2,262.9c-0.9-0.1-1.4-0.8-1.3-1.6c3-19.1,0.1-30.9-3-39.9c-6.6-18.9-34.4-23-52-20
		c-13.3,2.3-20.7,13.1-20.8,13.2c-0.2,0.3-0.5,0.5-0.8,0.6c-2.5,0.5-4.7,1.6-6.4,3.1c-0.6,0.5-1.4,0.4-1.9-0.1
		c-0.5-0.6-0.4-1.4,0.1-1.9c2-1.7,4.4-3,7.1-3.6c1.6-2.2,9.2-11.6,22.2-13.9c18.5-3.3,47.8,1.3,55,21.7c3.3,9.3,6.2,21.5,3.1,41.2
		C513.4,262.4,512.8,262.9,512.2,262.9z"/>
</g>
<g>
	<path class="st0" d="M423.1,262.9c-0.6,0-1.1-0.4-1.3-1c-0.1-0.5-3.3-11.9-3.2-23.7c0-0.7,0.6-1.3,1.3-1.3c0.8,0,1.4,0.6,1.3,1.4
		c-0.1,11.4,3.1,22.9,3.1,23c0.2,0.7-0.2,1.5-0.9,1.7C423.3,262.8,423.2,262.9,423.1,262.9z"/>
</g>
<g>
	<path class="st0" d="M353.3,645.2c-0.9-0.1-1.4-0.7-1.3-1.5l2.5-24.1c0.1-0.7,0.7-1.3,1.5-1.2c0.7,0.1,1.3,0.7,1.2,1.5l-2.5,24.1
		C354.6,644.7,354,645.2,353.3,645.2z"/>
</g>
<g>
	<path class="st0" d="M369.8,493.5c-0.9-0.1-1.4-0.8-1.3-1.5l8.8-68.3c0.1-0.7,0.8-1.3,1.5-1.2c0.7,0.1,1.3,0.8,1.2,1.5l-8.8,68.3
		C371,493,370.4,493.5,369.8,493.5z"/>
</g>
<g>
	<path class="st0" d="M571.6,645.2c-0.7,0-1.3-0.5-1.3-1.2c-9.2-97.3-16.1-155.2-20.3-186.6c-0.1-0.7,0.4-1.4,1.2-1.5
		c0.8-0.1,1.4,0.4,1.5,1.2c4.2,31.5,11.2,89.4,20.4,186.7c0.1,0.7-0.5,1.4-1.2,1.5C571.7,645.2,571.7,645.2,571.6,645.2z"/>
</g>
<g>
	<path class="st0" d="M439.4,258.5c-0.2,0-0.3,0-0.5-0.1c-0.7-0.3-1.1-1-0.8-1.7c2.4-6.6,11.6-8.6,17.1-7.3c0.7,0.2,1.2,0.9,1,1.6
		c-0.2,0.7-0.8,1.2-1.6,1c-4.5-1-12.2,0.7-14,5.6C440.5,258.2,440,258.5,439.4,258.5z"/>
</g>
<g>
	<path class="st0" d="M493.6,258.5c-0.6,0-1.1-0.3-1.3-0.9c-1.8-4.9-9.5-6.6-14-5.6c-0.8,0.2-1.4-0.3-1.6-1c-0.2-0.7,0.3-1.4,1-1.6
		c5.5-1.2,14.7,0.7,17.1,7.3c0.3,0.7-0.1,1.5-0.8,1.7C493.9,258.5,493.7,258.5,493.6,258.5z"/>
</g>
<g>
	<path class="st0" d="M438.8,222.4c-0.4,0-0.8-0.2-1.1-0.6l-4.3-6.1c-0.4-0.6-0.3-1.4,0.3-1.9c0.6-0.4,1.4-0.3,1.9,0.3l4.3,6.1
		c0.4,0.6,0.3,1.4-0.3,1.9C439.3,222.3,439,222.4,438.8,222.4z"/>
</g>
<g>
	<path class="st0" d="M585.3,378.3c-0.4,0-0.8-0.2-1-0.5c-24.9-29.7-51-35.4-70.9-37.1c-0.7-0.1-1.3-0.7-1.2-1.5
		c0.1-0.7,0.7-1.3,1.5-1.2c20.5,1.7,47.2,7.5,72.7,38.1c0.5,0.6,0.4,1.4-0.2,1.9C585.9,378.2,585.6,378.3,585.3,378.3z"/>
</g>
<g>
	<path class="st2" d="M107.8,382c-2.3-4-6.1-4-8.4,0l-17.8,30.5c-2.3,4-0.5,7.2,4.1,7.2h35.8c4.6,0,6.5-3.2,4.1-7.2L107.8,382z"/>
	<g>
		<path class="st0" d="M121.5,421.1H85.7c-2.7,0-4.8-1-5.8-2.8c-1-1.8-0.8-4.1,0.5-6.4l17.8-30.5c2.7-4.7,8-4.7,10.8,0l17.8,30.5
			c1.4,2.4,1.6,4.6,0.5,6.4C126.3,420.1,124.3,421.1,121.5,421.1z M103.6,380.4c-1.1,0-2.2,0.8-3.1,2.3l-17.8,30.5
			c-0.9,1.5-1,2.8-0.5,3.8c0.5,0.9,1.8,1.4,3.5,1.4h35.8c1.7,0,3-0.5,3.5-1.4c0.5-0.9,0.3-2.3-0.5-3.8l-17.8-30.5
			C105.8,381.2,104.7,380.4,103.6,380.4z"/>
	</g>
</g>
<g>
	<path class="st0" d="M544.9,443.9c-4.1,0-7.4-0.7-9.9-2.2c-2.5-1.4-4-3.5-4.7-6.2c-2.2-9,9-15.2,9.5-15.5c0.7-0.3,1.5-0.1,1.8,0.5
		c0.4,0.7,0.1,1.5-0.5,1.8c-0.1,0.1-9.9,5.5-8.2,12.5c0.5,2,1.6,3.4,3.4,4.5c4.5,2.6,12.6,2.4,23-0.5c14.3-4.1,40.3-17,40.5-17.2
		c0.7-0.3,1.5-0.1,1.8,0.6c0.3,0.7,0.1,1.5-0.6,1.8c-1.1,0.5-26.5,13.2-41,17.3C554.4,443.1,549.3,443.9,544.9,443.9z"/>
</g>
<g>
	<path class="st0" d="M555.3,457.3c-4.6,0-8.3-0.8-10.6-2.7c-7.8-6.6-3.7-12.8-3.7-12.9c0.4-0.6,1.3-0.8,1.9-0.4
		c0.6,0.4,0.8,1.2,0.4,1.9c-0.1,0.2-2.7,4.4,3.2,9.3c6.2,5.2,30.4,0.4,50.7-10.2c11-5.7,20.1-12.6,27-20.7
		c6.6-7.8,9.2-18.6,7.3-30.4c-1.7-10.6-6.4-20.6-13.5-28.9c-0.7-0.8-1.3-1.5-2-2.2c-3.3-3.7-6.5-7.2-6.9-12.7
		c-0.2-2.4-0.3-5-0.3-7.7c-0.3-10.5-0.6-22.3-7.8-24.1c-4.6-1.1-8.6-0.2-11.5,2.7c-5.2,5.3-6.1,16.2-2.5,29.8c1.3,4.7,2.6,9.4,4,14
		l1.5,5.2c0.4,1.2,0.9,2.9,0.2,4.6c-0.4,1.1-1.3,1.9-2.1,2.6c-8.9,7.4-19.1,13.2-30.2,17.1c-15.1,5.2-24,10.9-26.4,17
		c-1.1,2.6-0.9,5.2,0.5,8c0.6,1.3,2,2.3,4.1,2.9c9.1,2.9,31.9-1.4,56.3-14.8c0.7-0.4,1.5-0.1,1.8,0.5c0.4,0.7,0.1,1.5-0.5,1.8
		c-22.3,12.3-46.9,18.6-58.4,15c-2.8-0.9-4.7-2.3-5.7-4.3c-1.7-3.5-1.9-6.9-0.6-10.2c2.8-6.9,12-12.9,28-18.5
		c10.9-3.8,20.8-9.4,29.4-16.6c0.6-0.5,1.1-1,1.4-1.5c0.3-0.7,0-1.7-0.3-2.8l-1.5-5.2c-1.4-4.7-2.8-9.4-4-14.1
		c-3.9-14.6-2.7-26.4,3.2-32.4c3.5-3.6,8.5-4.8,14.1-3.4c9.2,2.3,9.5,15.2,9.8,26.6c0.1,2.7,0.1,5.3,0.3,7.6
		c0.4,4.6,3.1,7.6,6.2,11.1c0.7,0.7,1.4,1.5,2,2.3c7.4,8.7,12.2,19.1,14.1,30.2c2.1,12.7-0.7,24.3-7.9,32.6
		c-7.1,8.3-16.5,15.5-27.8,21.3C584.4,452,566.9,457.3,555.3,457.3z"/>
</g>
<g>
	<path class="st0" d="M429.7,297h-43.5c-0.7,0-1.3-0.6-1.3-1.3c0-0.7,0.6-1.3,1.3-1.3h43.5c0.7,0,1.3,0.6,1.3,1.3
		C431,296.4,430.4,297,429.7,297z"/>
</g>
<g>
	<path class="st0" d="M503.9,198.9c-0.7,0-1.3-0.6-1.3-1.3V71.9c0-19.8-16.1-36-36-36H165.1c-19.8,0-36,16.1-36,36v58.5
		c0,0.7-0.6,1.3-1.3,1.3c-0.7,0-1.3-0.6-1.3-1.3V71.9c0-21.3,17.3-38.7,38.7-38.7h301.5c21.3,0,38.7,17.3,38.7,38.7v125.6
		C505.3,198.3,504.7,198.9,503.9,198.9z"/>
</g>
<g>
	<path class="st0" d="M231.6,297h-66.5c-21.3,0-38.7-17.3-38.7-38.7c0-0.7,0.6-1.3,1.3-1.3c0.7,0,1.3,0.6,1.3,1.3
		c0,19.8,16.1,36,36,36h66.5c0.7,0,1.3,0.6,1.3,1.3C233,296.4,232.4,297,231.6,297z"/>
</g>
<g>
	<path class="st0" d="M813.2,547.5H662.6c-0.7,0-1.3-0.6-1.3-1.3c0-0.7,0.6-1.3,1.3-1.3h150.6c17.1,0,31-13.9,31-31V401
		c0-0.7,0.6-1.3,1.3-1.3c0.7,0,1.3,0.6,1.3,1.3v112.8C846.8,532.4,831.7,547.5,813.2,547.5z"/>
</g>
<g>
	<path class="st0" d="M845.5,346.6c-0.7,0-1.3-0.6-1.3-1.3v-11.9c0-17.1-13.9-31-31-31H571.8c-17.1,0-31,13.9-31,31v11.1
		c0,0.7-0.6,1.3-1.3,1.3s-1.3-0.6-1.3-1.3v-11.1c0-18.6,15.1-33.7,33.7-33.7h241.4c18.6,0,33.7,15.1,33.7,33.7v11.9
		C846.8,346,846.2,346.6,845.5,346.6z"/>
</g>
<g>
	<path class="st0" d="M460.5,621.7H116.6c-18.6,0-33.7-15.1-33.7-33.7v-61.9c0-18.6,15.1-33.7,33.7-33.7h106.5
		c0.7,0,1.3,0.6,1.3,1.3c0,0.7-0.6,1.3-1.3,1.3H116.6c-17.1,0-31,13.9-31,31V588c0,17.1,13.9,31,31,31h343.9c17.1,0,31-13.9,31-31
		v-61.9c0-17.1-13.9-31-31-31H322.4c-0.7,0-1.3-0.6-1.3-1.3c0-0.7,0.6-1.3,1.3-1.3h138.1c18.6,0,33.7,15.1,33.7,33.7V588
		C494.1,606.6,479,621.7,460.5,621.7z"/>
</g>
<g>
	<path class="st0" d="M309.8,234.1c-0.6,0-1.1-0.3-1.3-0.9c-0.3-0.9-7.3-21.1,6.1-31.6c7.5-5.8,16.5-5.6,26.1-5.3
		c7.6,0.2,16.2,0.4,25.3-2.3c6.9-2.1,14.3-5.3,21.4-8.5c14.7-6.5,27.3-12.1,34.4-7.3c3.3,2.2,4.4,6.5,3,11.5
		c-3.6,12.4-21.6,26.2-52.5,27.2c-0.7,0-1.4-0.6-1.4-1.3c0-0.7,0.6-1.4,1.3-1.4c34-1.1,47.6-17,50-25.3c1.1-3.8,0.4-6.9-1.9-8.5
		c-5.8-4-18.4,1.6-31.8,7.5c-7.2,3.2-14.6,6.5-21.7,8.6c-9.4,2.9-18.3,2.6-26.1,2.4c-9.5-0.3-17.7-0.5-24.4,4.8
		c-11.9,9.3-5.3,28.4-5.2,28.6c0.2,0.7-0.1,1.5-0.8,1.7C310.1,234.1,310,234.1,309.8,234.1z"/>
</g>
<g>
	<path class="st0" d="M381.9,229.1c-2.9,0-5.9-0.1-8.9-0.3c-0.7-0.1-1.3-0.7-1.2-1.4c0.1-0.7,0.6-1.3,1.4-1.2
		c27.2,2.1,51.1-5.9,55.6-18.6c1.3-3.7,1.3-6.6-0.1-8.8c-2.2-3.4-7.2-3.7-7.2-3.7c-0.7,0-1.3-0.7-1.3-1.4c0-0.7,0.7-1.3,1.4-1.3
		c0.3,0,6.4,0.4,9.3,4.9c1.9,2.8,2,6.6,0.4,11.1C426.9,220.9,406.8,229.1,381.9,229.1z"/>
</g>
<g>
	<path class="st0" d="M340.6,247c-0.7,0-1.3-0.6-1.3-1.3c0-0.7,0.5-1.4,1.3-1.4c23.8-1.3,26.7-24.5,26.7-24.8
		c0.1-0.7,0.7-1.2,1.5-1.2c0.7,0.1,1.3,0.8,1.2,1.5C369.9,220.1,366.7,245.6,340.6,247C340.6,247,340.6,247,340.6,247z"/>
</g>
<g>
	<path class="st0" d="M377,302.4c-1.1,0-2.1-0.2-3.2-0.5c-8-2.7-13.1-15.3-14.9-20.6c-1.5-4.3-7.7-6.6-11.4-8
		c-3.7-1.4-7.7-2.3-11.5-3.1c-2.3-0.5-4.7-1-7-1.7c-7.5-2-13.1-6.6-16.5-13.6c-3.1-6.4-4.5-14-4-22.2c0-0.7,0.7-1.2,1.4-1.3
		c0.7,0,1.3,0.7,1.3,1.4c-0.4,7.7,0.9,15,3.8,20.9c3.1,6.3,7.9,10.3,14.8,12.2c2.3,0.6,4.6,1.1,6.9,1.6c3.9,0.9,8,1.8,11.9,3.2
		c4.2,1.6,11.1,4.2,13,9.7c1.3,3.8,6.1,16.5,13.2,18.9c2.4,0.8,4.8,0.4,7.3-1.3c4.2-2.8,5.2-7.1,5.4-10.2c0.4-7.7-4-17.2-10.4-22.7
		c-3.6-3.1-8-6.1-11.6-8.1c-0.7-0.4-2.1-1.1-2.5-2.6c-0.2-1,0-1.9,0.3-2.5c1-2.5,3-4.4,5.7-5.2c1.8-0.6,3.7-0.7,5.5-0.8
		c9.9-0.5,18.9-1.7,27.2-3.6c6.8-1.5,14.5-3.6,21.1-7.8c2.2-1.4,5.3-3.7,6.1-6.6c2.2-7.4-5-10.5-5.3-10.6c-0.7-0.3-1-1.1-0.7-1.8
		c0.3-0.7,1.1-1,1.8-0.7c3.4,1.4,9.1,6.1,6.8,13.9c-1.1,3.8-4.7,6.5-7.3,8.1c-6.9,4.4-14.9,6.6-21.9,8.2c-8.4,1.9-17.7,3.1-27.4,3.6
		c-2,0.1-3.6,0.2-5.1,0.7c-1.9,0.6-3.3,1.8-4,3.6c-0.2,0.5-0.2,0.7-0.2,0.8c0.1,0.3,0.8,0.7,1.2,0.9c3.8,2,8.3,5.2,12.1,8.4
		c7.1,6,11.9,16.5,11.4,24.9c-0.3,5.4-2.6,9.6-6.6,12.3C381.3,301.7,379.2,302.4,377,302.4z"/>
</g>
<g>
	<path class="st0" d="M134,433.6H95.1c-13.7,0-24.8-11.1-24.8-24.8v-28.9c0-13.7,11.1-24.8,24.8-24.8H134
		c13.7,0,24.8,11.1,24.8,24.8v28.9C158.8,422.4,147.7,433.6,134,433.6z M95.1,357.8c-12.2,0-22.1,9.9-22.1,22.1v28.9
		c0,12.2,9.9,22.1,22.1,22.1H134c12.2,0,22.1-9.9,22.1-22.1v-28.9c0-12.2-9.9-22.1-22.1-22.1H95.1z"/>
</g>
<g>
	<path class="st0" d="M718.9,179.5h-39.1c-6.3,0-11.4-5.1-11.4-11.4V129c0-6.3,5.1-11.4,11.4-11.4h39.1c6.3,0,11.4,5.1,11.4,11.4
		v39.1C730.3,174.4,725.2,179.5,718.9,179.5z M679.8,120.3c-4.8,0-8.7,3.9-8.7,8.7v39.1c0,4.8,3.9,8.7,8.7,8.7h39.1
		c4.8,0,8.7-3.9,8.7-8.7V129c0-4.8-3.9-8.7-8.7-8.7H679.8z"/>
</g>
<g>
	<path class="st0" d="M693.4,118.8c-0.6,0-1.1-0.3-1.3-0.9c-7.2-20.8-19.5-35.2-36.6-42.7c-23.8-10.6-56.3-7.3-96.5,9.8
		c-0.7,0.3-1.5,0-1.8-0.7c-0.3-0.7,0-1.5,0.7-1.8c40.9-17.3,74.1-20.6,98.6-9.7c17.5,7.8,30.6,23.1,38,44.3c0.2,0.7-0.1,1.5-0.8,1.7
		C693.7,118.7,693.5,118.8,693.4,118.8z"/>
</g>
<g>
	<path class="st0" d="M544.8,104.3c-8.3,0-15-6.7-15-15c0-8.3,6.7-15,15-15s15,6.7,15,15C559.8,97.5,553.1,104.3,544.8,104.3z
		 M544.8,76.9c-6.8,0-12.3,5.5-12.3,12.3c0,6.8,5.5,12.3,12.3,12.3c6.8,0,12.3-5.5,12.3-12.3C557.1,82.4,551.6,76.9,544.8,76.9z"/>
</g>
<g>
	<path class="st0" d="M699.4,163.5c-8.3,0-15-6.7-15-15c0-8.3,6.7-15,15-15c8.3,0,15,6.7,15,15C714.4,156.8,707.6,163.5,699.4,163.5
		z M699.4,136.2c-6.8,0-12.3,5.5-12.3,12.3c0,6.8,5.5,12.3,12.3,12.3c6.8,0,12.3-5.5,12.3-12.3C711.7,141.7,706.2,136.2,699.4,136.2
		z"/>
</g>
<g>
	<path class="st0" d="M774.2,230.7c-12,0-22.7-2.1-32.1-6.3c-17.5-7.8-30.7-23.1-38-44.4c-0.2-0.7,0.1-1.5,0.8-1.7
		c0.7-0.2,1.5,0.1,1.7,0.8c7.2,20.8,19.5,35.2,36.6,42.8c23.8,10.6,56.3,7.3,96.5-9.7c0.7-0.3,1.5,0,1.8,0.7c0.3,0.7,0,1.5-0.7,1.8
		C815.6,225.4,793.3,230.7,774.2,230.7z"/>
</g>
<g>
	<path class="st0" d="M853.9,222.9c-8.3,0-15-6.7-15-15s6.7-15,15-15c8.3,0,15,6.7,15,15S862.2,222.9,853.9,222.9z M853.9,195.5
		c-6.8,0-12.3,5.5-12.3,12.3c0,6.8,5.5,12.3,12.3,12.3c6.8,0,12.3-5.5,12.3-12.3C866.2,201.1,860.7,195.5,853.9,195.5z"/>
</g>
<g>
	<path class="st0" d="M408.9,541.3H211.2c-0.7,0-1.3-0.6-1.3-1.3s0.6-1.3,1.3-1.3h197.7c0.7,0,1.3,0.6,1.3,1.3
		S409.7,541.3,408.9,541.3z"/>
</g>
<g>
	<path class="st0" d="M408.9,574.7H211.2c-0.7,0-1.3-0.6-1.3-1.3s0.6-1.3,1.3-1.3h197.7c0.7,0,1.3,0.6,1.3,1.3
		S409.7,574.7,408.9,574.7z"/>
</g>
<g>
	<path class="st0" d="M142.5,580.1c-12.7,0-23-10.3-23-23s10.3-23,23-23c12.7,0,23,10.3,23,23S155.2,580.1,142.5,580.1z
		 M142.5,536.7c-11.2,0-20.4,9.1-20.4,20.4c0,11.2,9.1,20.4,20.4,20.4c11.2,0,20.4-9.1,20.4-20.4
		C162.8,545.8,153.7,536.7,142.5,536.7z"/>
</g>
<g>
	<path class="st0" d="M483.2,98.4h-335c-0.7,0-1.3-0.6-1.3-1.3s0.6-1.3,1.3-1.3h335c0.7,0,1.3,0.6,1.3,1.3S484,98.4,483.2,98.4z"/>
</g>
<g>
	<path class="st0" d="M461.9,81c-8.1,0-14.6-6.5-14.6-14.6c0-8.1,6.6-14.6,14.6-14.6c8.1,0,14.6,6.5,14.6,14.6
		C476.5,74.5,470,81,461.9,81z M461.9,54.5c-6.6,0-11.9,5.3-11.9,11.9c0,6.6,5.3,11.9,11.9,11.9c6.6,0,11.9-5.3,11.9-11.9
		C473.8,59.9,468.5,54.5,461.9,54.5z"/>
</g>
<g>
	<circle class="st1" cx="417.1" cy="66.4" r="13.3"/>
	<g>
		<path class="st0" d="M417.1,81c-8.1,0-14.6-6.5-14.6-14.6c0-8.1,6.5-14.6,14.6-14.6c8.1,0,14.6,6.5,14.6,14.6
			C431.7,74.5,425.2,81,417.1,81z M417.1,54.5c-6.6,0-11.9,5.3-11.9,11.9c0,6.6,5.3,11.9,11.9,11.9S429,73,429,66.4
			C429,59.9,423.7,54.5,417.1,54.5z"/>
	</g>
</g>
<g>
	<path class="st0" d="M372.4,81c-8.1,0-14.6-6.5-14.6-14.6c0-8.1,6.6-14.6,14.6-14.6c8.1,0,14.6,6.5,14.6,14.6
		C387,74.5,380.4,81,372.4,81z M372.4,54.5c-6.6,0-11.9,5.3-11.9,11.9c0,6.6,5.3,11.9,11.9,11.9c6.6,0,11.9-5.3,11.9-11.9
		C384.3,59.9,378.9,54.5,372.4,54.5z"/>
</g>
<g>
	<path class="st0" d="M334.7,376.3c-0.4,0-0.9-0.2-1.1-0.6c-0.4-0.6-0.2-1.5,0.4-1.9c0.4-0.3,40.4-25.2,86.8-34.1
		c0.7-0.1,1.4,0.3,1.6,1.1c0.1,0.7-0.3,1.4-1.1,1.6c-45.9,8.8-85.4,33.5-85.8,33.8C335.2,376.2,334.9,376.3,334.7,376.3z"/>
</g>
<g>
	<path class="st0" d="M528.7,413.7h-14c-0.7,0-1.3-0.6-1.3-1.3c0-0.7,0.6-1.3,1.3-1.3h14c0.7,0,1.3,0.6,1.3,1.3
		C530,413.1,529.4,413.7,528.7,413.7z M500.6,413.7h-14c-0.7,0-1.3-0.6-1.3-1.3c0-0.7,0.6-1.3,1.3-1.3h14c0.7,0,1.3,0.6,1.3,1.3
		C502,413.1,501.4,413.7,500.6,413.7z M472.6,413.7h-14c-0.7,0-1.3-0.6-1.3-1.3c0-0.7,0.6-1.3,1.3-1.3h14c0.7,0,1.3,0.6,1.3,1.3
		C473.9,413.1,473.3,413.7,472.6,413.7z M444.5,413.7h-14c-0.7,0-1.3-0.6-1.3-1.3c0-0.7,0.6-1.3,1.3-1.3h14c0.7,0,1.3,0.6,1.3,1.3
		C445.9,413.1,445.3,413.7,444.5,413.7z M416.5,413.7h-14c-0.7,0-1.3-0.6-1.3-1.3c0-0.7,0.6-1.3,1.3-1.3h14c0.7,0,1.3,0.6,1.3,1.3
		C417.9,413.1,417.3,413.7,416.5,413.7z M388.5,413.7h-14c-0.7,0-1.3-0.6-1.3-1.3c0-0.7,0.6-1.3,1.3-1.3h14c0.7,0,1.3,0.6,1.3,1.3
		C389.8,413.1,389.2,413.7,388.5,413.7z M360.4,413.7h-14c-0.7,0-1.3-0.6-1.3-1.3c0-0.7,0.6-1.3,1.3-1.3h14c0.7,0,1.3,0.6,1.3,1.3
		C361.8,413.1,361.2,413.7,360.4,413.7z M336.8,409.3c-0.7,0-1.3-0.6-1.3-1.3v-14c0-0.7,0.6-1.3,1.3-1.3c0.7,0,1.3,0.6,1.3,1.3v14
		C338.2,408.7,337.6,409.3,336.8,409.3z M336.8,381.3c-0.7,0-1.3-0.6-1.3-1.3v-14c0-0.7,0.6-1.3,1.3-1.3c0.7,0,1.3,0.6,1.3,1.3v14
		C338.2,380.7,337.6,381.3,336.8,381.3z M336.8,353.2c-0.7,0-1.3-0.6-1.3-1.3v-14c0-0.7,0.6-1.3,1.3-1.3c0.7,0,1.3,0.6,1.3,1.3v14
		C338.2,352.6,337.6,353.2,336.8,353.2z M336.8,325.2c-0.7,0-1.3-0.6-1.3-1.3v-14c0-0.7,0.6-1.3,1.3-1.3c0.7,0,1.3,0.6,1.3,1.3v14
		C338.2,324.6,337.6,325.2,336.8,325.2z M595.5,302.1c-0.7,0-1.3-0.6-1.3-1.3v-14c0-0.7,0.6-1.3,1.3-1.3c0.7,0,1.3,0.6,1.3,1.3v14
		C596.8,301.5,596.2,302.1,595.5,302.1z M336.8,297.1c-0.7,0-1.3-0.6-1.3-1.3v-14c0-0.7,0.6-1.3,1.3-1.3c0.7,0,1.3,0.6,1.3,1.3v14
		C338.2,296.5,337.6,297.1,336.8,297.1z M595.5,274.1c-0.7,0-1.3-0.6-1.3-1.3v-14c0-0.7,0.6-1.3,1.3-1.3c0.7,0,1.3,0.6,1.3,1.3v14
		C596.8,273.5,596.2,274.1,595.5,274.1z M336.8,269.1c-0.7,0-1.3-0.6-1.3-1.3v-14c0-0.7,0.6-1.3,1.3-1.3c0.7,0,1.3,0.6,1.3,1.3v14
		C338.2,268.5,337.6,269.1,336.8,269.1z M595.5,246.1c-0.7,0-1.3-0.6-1.3-1.3v-14c0-0.7,0.6-1.3,1.3-1.3c0.7,0,1.3,0.6,1.3,1.3v14
		C596.8,245.5,596.2,246.1,595.5,246.1z M336.8,241.1c-0.7,0-1.3-0.6-1.3-1.3v-14c0-0.7,0.6-1.3,1.3-1.3c0.7,0,1.3,0.6,1.3,1.3v14
		C338.2,240.5,337.6,241.1,336.8,241.1z M595.5,218c-0.7,0-1.3-0.6-1.3-1.3v-5h-6.3c-0.7,0-1.3-0.6-1.3-1.3s0.6-1.3,1.3-1.3h7.7
		c0.7,0,1.3,0.6,1.3,1.3v6.3C596.8,217.4,596.2,218,595.5,218z M336.8,213c-0.7,0-1.3-0.6-1.3-1.3v-1.4c0-0.7,0.6-1.3,1.3-1.3h12.7
		c0.7,0,1.3,0.6,1.3,1.3s-0.6,1.3-1.3,1.3l-11.3,0C338.2,212.4,337.6,213,336.8,213z M573.8,211.7h-14c-0.7,0-1.3-0.6-1.3-1.3
		s0.6-1.3,1.3-1.3h14c0.7,0,1.3,0.6,1.3,1.3S574.5,211.7,573.8,211.7z M545.8,211.7h-14c-0.7,0-1.3-0.6-1.3-1.3s0.6-1.3,1.3-1.3h14
		c0.7,0,1.3,0.6,1.3,1.3S546.5,211.7,545.8,211.7z M517.7,211.7h-14c-0.7,0-1.3-0.6-1.3-1.3s0.6-1.3,1.3-1.3h14
		c0.7,0,1.3,0.6,1.3,1.3S518.5,211.7,517.7,211.7z M489.7,211.7h-14c-0.7,0-1.3-0.6-1.3-1.3s0.6-1.3,1.3-1.3h14
		c0.7,0,1.3,0.6,1.3,1.3S490.4,211.7,489.7,211.7z M461.6,211.7h-14c-0.7,0-1.3-0.6-1.3-1.3s0.6-1.3,1.3-1.3h14
		c0.7,0,1.3,0.6,1.3,1.3S462.4,211.7,461.6,211.7z M433.6,211.7h-14c-0.7,0-1.3-0.6-1.3-1.3s0.6-1.3,1.3-1.3h14
		c0.7,0,1.3,0.6,1.3,1.3S434.4,211.7,433.6,211.7z M405.6,211.7h-14c-0.7,0-1.3-0.6-1.3-1.3s0.6-1.3,1.3-1.3h14
		c0.7,0,1.3,0.6,1.3,1.3S406.3,211.7,405.6,211.7z M377.5,211.7h-14c-0.7,0-1.3-0.6-1.3-1.3s0.6-1.3,1.3-1.3h14
		c0.7,0,1.3,0.6,1.3,1.3S378.3,211.7,377.5,211.7z"/>
</g>
<g>
	<path class="st0" d="M506.6,260.5c-0.3,0-0.7-0.1-0.9-0.4c-25.9-24.2-56-30-62-30.9c-1.4,4-6.8,18.2-14.1,25
		c-0.5,0.5-1.4,0.5-1.9-0.1c-0.5-0.5-0.5-1.4,0.1-1.9c7.9-7.3,13.7-24.8,13.8-25c0.2-0.6,0.8-1,1.4-0.9c0.4,0,35.2,4.2,64.6,31.7
		c0.5,0.5,0.6,1.4,0.1,1.9C507.3,260.3,506.9,260.5,506.6,260.5z"/>
</g>
<g>
	<path class="st0" d="M466.5,291.6c-4.7,0-9.6-2.7-11.6-5.3c-1.3-1.8-1.2-3.2-0.9-4.1c0.5-1.5,1.6-3.2,2.8-5.2
		c3-5,7.2-11.9,8.1-22.8c0.1-0.7,0.6-1.3,1.5-1.2c0.7,0.1,1.3,0.7,1.2,1.5c-1,11.6-5.5,19.1-8.5,24c-1.1,1.8-2.1,3.4-2.5,4.7
		c-0.2,0.5,0.3,1.2,0.5,1.6c1.7,2.2,6.1,4.4,10.1,4.2c0.8-0.1,1.4,0.5,1.4,1.3c0,0.7-0.5,1.4-1.3,1.4
		C467.1,291.6,466.8,291.6,466.5,291.6z"/>
</g>
<g>
	<path class="st0" d="M467.6,479.1c-0.7,0-1.3-0.6-1.3-1.3v-98.5c0-0.7,0.6-1.3,1.3-1.3c0.7,0,1.3,0.6,1.3,1.3v98.5
		C468.9,478.5,468.3,479.1,467.6,479.1z"/>
</g>
<g>
	<path class="st0" d="M316.5,260.8c-0.3,0-0.6-0.1-0.8-0.3c-15.4-11.6-22.5-24.3-18.3-32.4c2-3.8,5.1-5.8,10.3-6.6
		c0.7-0.1,1.4,0.4,1.5,1.1c0.1,0.7-0.4,1.4-1.1,1.5c-4.4,0.7-6.8,2.2-8.4,5.2c-3.6,6.8,3.5,18.4,17.5,29c0.6,0.4,0.7,1.3,0.3,1.9
		C317.3,260.6,316.9,260.8,316.5,260.8z"/>
</g>
<g>
	<path class="st0" d="M358.3,279.3c-8.8-1.2-18.1-4.4-28.5-9.9c-0.6-0.3-1.3-0.7-1.9-1c-0.6-0.4-0.9-1.2-0.5-1.8
		c0.4-0.7,1.2-0.9,1.8-0.5c0.6,0.3,1.2,0.7,1.9,1c10.2,5.3,19.2,8.5,27.5,9.6c0.7,0.1,1.3,0.8,1.2,1.5
		C359.6,278.8,359,279.3,358.3,279.3z"/>
</g>
<g>
	<path class="st0" d="M382.1,269.8c-0.9-0.1-1.4-0.8-1.3-1.5c0.6-5.4-3.3-12.4-11-19.7c-0.5-0.5-0.6-1.4,0-1.9
		c0.5-0.5,1.4-0.6,1.9,0c8.3,7.9,12.5,15.7,11.8,21.9C383.3,269.3,382.7,269.8,382.1,269.8z"/>
</g>
<g>
	<path class="st0" d="M480.3,302c-0.6,0-1.2-0.4-1.3-1.1c-0.3-1.3-2.7-12.7,3.6-14.3c2.7-0.7,4.4,0.2,5.3,1.1
		c2.3,2.2,2.3,6.6,1.6,9.7c-0.2,0.7-0.9,1.2-1.6,1c-0.7-0.2-1.2-0.9-1-1.6c0.6-2.6,0.5-5.8-0.8-7.1c-0.2-0.2-0.9-0.9-2.7-0.4
		c-2.9,0.7-2.3,7.8-1.6,11c0.2,0.7-0.3,1.4-1,1.6C480.5,301.9,480.4,302,480.3,302z"/>
</g>
<g>
	<path class="st0" d="M227.7,241.6c-0.7,0-1.3-0.6-1.3-1.3V113.8c0-0.7,0.6-1.3,1.3-1.3c0.7,0,1.3,0.6,1.3,1.3v126.5
		C229.1,241,228.5,241.6,227.7,241.6z"/>
</g>
<g>
	<path class="st0" d="M491.1,273.2c-0.3,0-11-2.7-11-2.7c-0.5-0.1-0.9-0.5-1-1.1c-0.1-0.5,0.1-1.1,0.6-1.4l9.5-6.6
		c0.6-0.4,1.5-0.3,1.9,0.3c0.4,0.6,0.3,1.5-0.3,1.9l-7.1,4.9l7.7,1.9c0.7,0.2,1.2,0.9,1,1.6C492.3,272.8,491.7,273.2,491.1,273.2z"
		/>
</g>
</svg>
