<?xml version="1.0" encoding="utf-8"?>
<!-- Generator: Adobe Illustrator 24.3.0, SVG Export Plug-In . SVG Version: 6.00 Build 0)  -->
<svg version="1.1" id="Layer_1" xmlns="http://www.w3.org/2000/svg" xmlns:xlink="http://www.w3.org/1999/xlink" x="0px" y="0px"
	 viewBox="0 0 796.6 535.1" style="enable-background:new 0 0 796.6 535.1;" xml:space="preserve">
<style type="text/css">
	.st0{fill:#FFFFFF;}
	.st1{fill:#428DFC;}
	.st2{fill:#040D28;}
	.st3{fill:#061344;}
	.st4{fill:#E24543;}
	.st5{fill:#CCCCCC;}
	.st6{fill:#141414;}
</style>
<g>
	<path class="st0" d="M678.2,407c0,0-26.4-9.3-24-33c2.4-23.7,16.1-43.2,30.9-58.1c14.8-14.9,46-44.9,76.8-55.4
		c0,0-4.1,34.7-11,58.8c-6.9,24.1-15.4,58.7-34.4,77.6C697.7,415.8,678.2,407,678.2,407z"/>
	<path class="st0" d="M652.6,291l-41.8-190.3c0,0-33.5,49.6-35.1,99.8C574.1,250.6,610.8,285.9,652.6,291z"/>
	<path class="st1" d="M611,401.4c0,0,16.8-9.1,15.2-31.3c-1.6-22.2-15.5-36.1-42.5-56.5c-27-20.4-77.6-36.5-77.6-36.5
		s8.4,27.7,12.5,39c4,11.4,23.4,60.2,42,77.5C579.2,411,596.3,413.7,611,401.4z"/>
	<g>
		<path class="st2" d="M671.7,304.8c-0.7-0.1-50.4-8.2-70.1-49.6c-16.7-35.1-7.6-83.1,27.2-142.6c0.3-0.4,0.7-0.7,1.3-0.6
			c0.5,0.1,0.9,0.5,1,1l41.8,190.3c0.1,0.4,0,0.8-0.3,1.1C672.4,304.6,672.1,304.8,671.7,304.8z M629.4,116.6
			c-33,57.5-41.6,103.7-25.5,137.5c17.1,35.8,57.3,46,66.3,47.8L629.4,116.6z"/>
	</g>
	<g>
		<path class="st2" d="M599.3,402.1c-12.9,0-25.9-8.6-38.7-25.9c-0.4-0.5-0.3-1.3,0.3-1.7c0.5-0.4,1.3-0.3,1.7,0.3
			c18.7,25.2,37.6,31.2,56.1,17.9c13.4-9.7,18.4-21.7,14.9-35.6c-9.5-38.2-78.3-80.3-116.5-86.7c1.6,5.7,6.8,24,14.9,44.9
			c0.2,0.6-0.1,1.4-0.7,1.6c-0.6,0.3-1.4-0.1-1.6-0.7c-9.8-25.3-15.4-46.8-15.5-47c-0.1-0.4,0-0.8,0.3-1.1c0.3-0.3,0.7-0.5,1.1-0.4
			c38.4,5.4,110.6,49.2,120.5,88.8c3.7,15.1-1.6,27.9-15.9,38.2C613.2,399.6,606.3,402.1,599.3,402.1z"/>
	</g>
	<g>
		<path class="st2" d="M703.1,419.1c-5.3,0-10.8-1.4-16.5-4.2c-15.3-7.6-22.5-19.1-21.3-34.4c3.1-41.5,69.9-100.7,108.4-112.9
			c0.4-0.1,0.8-0.1,1.2,0.2c0.3,0.3,0.5,0.7,0.4,1.1c-0.6,5-14.4,122.9-57.2,146.3C713.4,417.8,708.3,419.1,703.1,419.1z
			 M772.7,270.6c-38.1,13.3-101.8,70.2-104.9,110.2c-1.1,14.2,5.6,24.9,20,32c10.4,5.1,20.2,5.2,29.3,0.3
			C755.7,391.9,770.6,286.2,772.7,270.6z"/>
	</g>
	<g>
		<path class="st2" d="M656,486.4c-0.5,0-1-0.4-1.2-0.9c-33.8-120.7-98.5-182.5-99.2-183.2c-0.5-0.5-0.5-1.3-0.1-1.7
			c0.5-0.5,1.3-0.5,1.8-0.1c0.7,0.6,65.8,62.9,99.9,184.3c0.2,0.7-0.2,1.3-0.9,1.5C656.2,486.4,656.1,486.4,656,486.4z"/>
	</g>
	<g>
		<path class="st2" d="M671.7,486.4c-0.7,0-1.3-0.6-1.2-1.3l3-80c0-0.7,0.6-1.2,1.2-1.2c0.7,0,1.3,0.6,1.2,1.3l-3,80
			C673,485.9,672.4,486.4,671.7,486.4z"/>
	</g>
	<g>
		<path class="st2" d="M673.3,357.5c-0.7,0-1.2-0.5-1.2-1.2l-1.6-52.8c0-0.7,0.5-1.3,1.2-1.3c0.7-0.1,1.3,0.5,1.3,1.2l1.6,52.8
			C674.6,356.9,674,357.5,673.3,357.5C673.3,357.5,673.3,357.5,673.3,357.5z"/>
	</g>
	<g>
		<path class="st2" d="M692.3,486.8c-0.6,0-1.1-0.4-1.2-1c-20.6-127.5,56.4-190.9,57.2-191.5c0.5-0.4,1.3-0.3,1.7,0.2
			c0.4,0.5,0.3,1.3-0.2,1.7c-0.8,0.6-76.6,63.2-56.3,189.1c0.1,0.7-0.4,1.3-1,1.4C692.4,486.8,692.4,486.8,692.3,486.8z"/>
	</g>
</g>
<path class="st0" d="M393.7,404.3c-0.7-6.2-2.8-10.3-5.8-10.6c-3-0.3-82.4,0-82.4,0s-0.2,0.3-0.6,0.7c5.5-6.6,7.6-15.3,4.3-23.8
	L267,260.3c-4.4-11.4-17.1-19.1-31.5-19.1H74.8c-22.4,0-38.3,18-31.5,35.7l12.5,32.5l18,46.8l11.9,30.9c2.9,7.4,9.3,13.3,17.4,16.5
	c-0.1,0,2.3,10,7.5,9.3h278.9C389.4,412.9,394.5,410.5,393.7,404.3z"/>
<path class="st1" d="M409.2,129.4c0,0-28.8,4.1-47.1,21.2s-29.2,31.3-39.8,60.2c-10.5,29-4.8,30.5-16.1,54.3
	c-11.3,23.8-14.3,29.4-14.3,29.4L319,368c0,0,2.8,20.5-6.7,25.4l7.3,0.7c0,0,20.1-17.4,27-31.5c7-14.1,12.6-29.7,12.6-29.7
	s0.2,17.7-1.4,31.7c-1.6,13.9-5.3,24.6-12.5,28.9l39.4,0.5c0,0,7.4-1,8.9,6c1.5,7-4.3,11.9-4.3,11.9l19.8,0.8
	c0,0,29.7,9.9,59.9,11.9c30.2,2,41.5-8.1,41.5-8.1l8.2,48.4c0,0,30.8,3.8,53.8-1.2c23-5,41.3-12.2,41.3-12.2s-26.2-125.5-28.7-136.6
	c-2.5-11.1-15.8-66.7-18.9-77.6c-3-10.9-8.9-32.9-22.6-57c-13.7-24.1-24.2-34.5-34.2-39.6c-10-5-34.2-17.7-59.9-16.1
	C423.9,126.6,409.2,129.4,409.2,129.4z"/>
<path class="st0" d="M449.6,124.9l-7.8-36.1c0,0,10.6,0.1,13.9-7.6c3.3-7.8-3-16.3-8.8-17.2c-5.8-0.8-9.6,0.1-9.6,0.1l-4-17h-0.9
	l-0.9,5.1l-35.4,1.2l-2.2-9.2l-6.8,9l-8,0.6l3.6,36.5c0,0,3.8,28.9,15.4,28.7c11.6-0.2,11-0.8,11-0.8l3.2,14.8
	c0,0-6.4,33.7,9.3,32.7c15.6-1,23.7-22.2,25.1-27.5C448.1,132.8,449.6,124.9,449.6,124.9z"/>
<path class="st0" d="M549.4,466.7v5.4c0,0-14.3,22.1-17.2,26.4c-2.9,4.4-1.8,12.3,4.4,14c6.2,1.7,12.8-6.5,16.4-11
	c3.6-4.5,8.8-10.3,14.1-9.9c5.3,0.5,20,1.2,36,7.7s18.3,9.7,25.4,9.8s9.9-3.9,11-5.2c0,0,4.7,2,10.7-2.6c6-4.6,1.5-9,1.5-9
	s3.2-1.6,1.6-6c-1.5-4.5-7.7-7.2-14.9-10.8c-7.2-3.6-17.2-4.6-23.6-8.9c-6.4-4.2-12.6-9.6-12.6-9.6s-10.9,3.5-26.3,6.3
	C560.3,466.1,549.4,466.7,549.4,466.7z"/>
<path class="st3" d="M517.2,145.9c0,0-4.4-15.8-16.5-26.6c-12.1-10.7-34.1-12.2-34.1-12.2s-11.1,10.4-17.9,10.1l1.6,7.6
	c0,0,15.2-0.8,30.5,4.3C495.9,134.4,517.2,145.9,517.2,145.9z"/>
<path class="st3" d="M443.5,96.3c0,0,13.1-4.2,18.6-17.2s5.4-24.6,2.6-36.7c-2.8-12.1-8.1-23.2-19-25.4c-10.9-2.2-21,0.4-21,0.4
	s-10.7-6.2-24.3-3.4c-13.6,2.8-28.9,13.1-28.6,40.2l14.8-1l7.2-9.7l1.5,9.5l36.3-0.9c0,0,2.4-12.9,2.4-12.5c0,0.5-0.8,15.6,3.4,24.3
	c0,0,14.2-4.4,17.7,6.3c3.5,10.7-2.9,19-13.2,18.4c-10.3-0.6,0-0.6,0-0.6L443.5,96.3z"/>
<path class="st4" d="M456.6,87.8c0,0,6.4,6.5,8.3,12.1c1.9,5.6,0.1,12.7-15.3,17.6l-1.6,0l-4.5-21.1
	C443.5,96.3,453.7,93.3,456.6,87.8z"/>
<path class="st5" d="M578.9,288.6c0,0-29.4,7.7-24,39.4c5.4,31.7,30.4,37,40.4,33.4L578.9,288.6z"/>
<path class="st0" d="M171,323c5,8.7,4.4,18.4-1.3,21.7c-5.7,3.3-14.4-1.1-19.4-9.8c-5-8.7-4.4-18.4,1.3-21.7
	C157.3,309.9,166,314.3,171,323z"/>
<path class="st3" d="M144.5,412.9c0,0-37.8,22.8-38.8,76.1h249.9c0,0,25.3,6.8,57.2,7.2c31.9,0.4,52.7-2.2,68.4-6.9
	c15.7-4.7,24.2-9.7,29.4-20.8s5.2-21.3,5.2-21.3l-5.2-30.5c0,0-18.9,11.2-49.7,7.1c-30.8-4.1-50-11.6-50-11.6L144.5,412.9z"/>
<path class="st0" d="M400.8,32.5c7.8-14.5,10.5-16.9,22.7-15c0.8,0.1,1.2,0,1.2,0c0,0-10.7-6.2-24.3-3.4
	c-13.6,2.8-28.9,13.1-28.6,40.2c0,0,14.8-1,14.8-1l7.2-9.7l1.5,9.5l5.9-0.1C400,50.6,397.2,39.3,400.8,32.5z"/>
<g>
	<path class="st2" d="M535.7,491.3h-57c-0.7,0-1.2-0.6-1.2-1.2c0-0.7,0.6-1.2,1.2-1.2h57c0.7,0,1.2,0.6,1.2,1.2
		C536.9,490.8,536.4,491.3,535.7,491.3z"/>
</g>
<g>
	<path class="st2" d="M358.5,490.7H11.7c-0.3,0-0.6-0.3-0.6-0.6c0-0.3,0.3-0.6,0.6-0.6h346.8c0.3,0,0.6,0.3,0.6,0.6
		C359.2,490.4,358.9,490.7,358.5,490.7z"/>
</g>
<g>
	<path class="st2" d="M717.8,491.3h-64.5c-0.7,0-1.2-0.6-1.2-1.2c0-0.7,0.6-1.2,1.2-1.2h64.5c0.7,0,1.2,0.6,1.2,1.2
		C719.1,490.8,718.5,491.3,717.8,491.3z"/>
</g>
<g>
	<path class="st2" d="M401.2,120.5c-1.4,0-2.9-0.2-4.4-0.7c-2.5-0.9-4.9-2.7-6.8-5.4c-7.1-9.4-8.2-21.2-9.3-32.6l-0.3-3
		c-0.7-7-1.5-24.6-1.5-24.8c0-0.7,0.5-1.3,1.2-1.3c0.6,0,1.3,0.5,1.3,1.2c0,0.2,0.8,17.7,1.5,24.6l0.3,3c1,11.1,2.1,22.5,8.8,31.4
		c1.7,2.2,3.6,3.8,5.7,4.5c3.2,1.1,6.4,0.4,9.8-0.4c0.9-0.2,1.8-0.4,2.7-0.6c4.3-0.8,8.7-1.9,13-3.3c0.6-0.2,1.3,0.1,1.6,0.8
		c0.2,0.7-0.1,1.4-0.8,1.6c-4.4,1.4-8.9,2.6-13.3,3.4c-0.9,0.2-1.7,0.4-2.6,0.6C405.8,120,403.5,120.5,401.2,120.5z"/>
</g>
<path class="st6" d="M413.4,64c-1,0-1.6,0.5-1.5,4c0.1,4,1.2,4.6,2.1,4.4c0.9-0.1,1.6-1.5,1.3-4.3C414.9,65.4,414.7,64.1,413.4,64z"
	/>
<path class="st6" d="M387.1,66.2c-1-0.1-1.6,0.4-1.6,4c0,4,1.1,4.6,2,4.5c0.9-0.1,1.7-1.4,1.4-4.2C388.5,67.6,388.4,66.3,387.1,66.2
	z"/>
<g>
	<path class="st2" d="M380.8,61.2c-0.3,0-0.6-0.1-0.8-0.3c-0.5-0.5-0.5-1.3-0.1-1.8c1.6-1.8,3.9-3.3,8.9-2.6c0.7,0.1,1.1,0.7,1,1.4
		c-0.1,0.7-0.7,1.1-1.4,1.1c-4.1-0.6-5.6,0.6-6.8,1.8C381.5,61.1,381.2,61.2,380.8,61.2z"/>
</g>
<g>
	<path class="st2" d="M443.3,90c-1.7,0-3.4-0.3-5-0.9c-0.6-0.2-1-1-0.7-1.6c0.2-0.6,1-1,1.6-0.7c2,0.7,4.1,1,6.2,0.6
		c3.1-0.5,5.7-2.2,7.5-4.8c1.8-2.6,2.5-5.7,1.9-8.7c-0.5-3.1-2.3-5.7-4.8-7.5c-2.6-1.8-5.7-2.5-8.7-1.9c-2.3,0.4-4.4,1.5-6.1,3.1
		c-0.5,0.5-1.3,0.5-1.8,0c-0.5-0.5-0.5-1.3,0-1.7c2-2,4.6-3.3,7.4-3.8c3.7-0.7,7.5,0.2,10.6,2.3c3.1,2.2,5.2,5.4,5.8,9.1
		c0.7,3.7-0.2,7.5-2.3,10.6c-2.2,3.1-5.4,5.2-9.1,5.8C445,90,444.2,90,443.3,90z"/>
</g>
<g>
	<path class="st2" d="M448,82.4c-0.1,0-0.3,0-0.4-0.1l-10.3-4c-0.4-0.1-0.6-0.4-0.7-0.8c-0.1-0.4,0-0.8,0.2-1.1l7.2-9.6
		c0.4-0.6,1.2-0.7,1.7-0.3c0.5,0.4,0.7,1.2,0.2,1.7l-6.2,8.3l8.7,3.4c0.6,0.2,1,1,0.7,1.6C448.9,82.1,448.5,82.4,448,82.4z"/>
</g>
<g>
	<path class="st2" d="M421.8,166.9c-1.7,0-3.3-0.4-4.7-1.1c-5.1-2.8-6.5-9.8-6.9-11.9c-0.6-3.5-0.3-7.1-0.1-10.4
		c0.1-1.1,0.1-2.1,0.2-3.2c0-0.2,0.3-6,0.3-6l-2.7-15.9c-0.1-0.7,0.3-1.3,1-1.4c0.7-0.2,1.3,0.3,1.4,1l2.7,16.2
		c0,0.3-0.3,6.1-0.3,6.3c-0.1,1.1-0.1,2.2-0.2,3.3c-0.2,3.4-0.5,6.6,0.1,9.9c0.3,1.8,1.5,7.9,5.6,10.1c1.9,1,4.5,1.1,7.1,0.2
		c14.7-5.3,20.6-24.1,23-39c0.1-0.7,0.8-1.2,1.4-1c0.7,0.1,1.1,0.7,1,1.4c-3.5,22.3-12,36.5-24.6,41
		C424.8,166.6,423.3,166.9,421.8,166.9z"/>
</g>
<g>
	<path class="st2" d="M405.9,99.3c-0.8,0-1.6-0.1-2.4-0.2c-0.7-0.1-1.1-0.7-1-1.4c0.1-0.7,0.7-1.2,1.4-1c2.9,0.4,5.1,0,6.6-1.4
		c2.6-2.3,2.6-6.3,2.6-6.4c0-0.7,0.6-1.3,1.2-1.3c0.7,0,1.2,0.5,1.2,1.2c0,0.2,0.1,5.3-3.4,8.3C410.5,98.6,408.4,99.3,405.9,99.3z"
		/>
</g>
<g>
	<path class="st2" d="M449.6,126.2c-0.6,0-1.1-0.4-1.2-1l-7.8-35c-0.2-0.7,0.3-1.3,0.9-1.5c0.6-0.1,1.3,0.3,1.5,0.9l7.8,35
		c0.2,0.7-0.3,1.3-0.9,1.5C449.8,126.2,449.7,126.2,449.6,126.2z"/>
</g>
<g>
	<path class="st2" d="M393.3,91.5c-0.5,0-0.9-0.2-1.1-0.7c-1.4-2.7-4.3-9.1-2.4-11.5c1.2-1.5,4.5-1.2,7.1-0.7l-1-15.7
		c0-0.7,0.5-1.3,1.2-1.3c0.7-0.1,1.3,0.5,1.3,1.2l1.1,17.3c0,0.4-0.1,0.8-0.4,1c-0.3,0.3-0.7,0.4-1.1,0.3c-2.7-0.7-5.6-0.9-6.2-0.5
		c-0.5,0.7,0.7,5,2.7,8.8c0.3,0.6,0.1,1.4-0.5,1.7C393.7,91.4,393.5,91.5,393.3,91.5z"/>
</g>
<g>
	<g>
		<g>
			<path class="st2" d="M539.2,514.1c-4.5,0-8.9-3.1-10-7.4c-1.1-4.3,1.3-8.1,3.5-11.4c0.5-0.7,0.9-1.4,1.3-2.1
				c1.1-1.9,3-4.4,4.9-6.9c3.7-4.8,7.9-10.3,9.3-14.9l0.3-4.7c0.1-0.7,0.6-1.2,1.3-1.1c0.7,0.1,1.2,0.7,1.1,1.3l-0.4,5
				c-1.6,5.3-5.9,11-9.7,16c-1.9,2.5-3.7,4.9-4.8,6.7c-0.4,0.7-0.9,1.5-1.4,2.2c-2,3-4,6.2-3.2,9.4c1,3.7,5.4,6.3,9.3,5.4
				c1.9-0.5,3.8-1.7,5.8-3.7c1.6-1.7,3.1-3.7,4.5-5.7c1.1-1.6,2.3-3.2,3.5-4.7c3.2-3.8,7.3-7.5,13.5-7c13,1.1,23.8,3.3,33,6.7
				c3,1.1,6,2.7,9.2,4.3c8.4,4.3,17,8.8,25.4,5c1.1-0.5,1.8-1,2.1-1.6c0.8-1.3,0.2-3-0.5-4.2c-2.4-3.9-6.5-6.6-10.4-9.3l-1-0.7
				c-3.8-2.6-8.2-5.1-13.4-7.4c-4.8-2.2-10.6-4.7-16.4-6c-0.7-0.2-1.1-0.8-0.9-1.5c0.2-0.7,0.9-1.1,1.5-0.9c6,1.4,11.9,3.9,16.9,6.2
				c5.3,2.4,9.8,4.9,13.8,7.6l1,0.7c3.9,2.7,8.4,5.7,11.1,10c1.1,1.8,1.8,4.5,0.5,6.7c-0.6,1.1-1.7,1.9-3.2,2.6
				c-9.4,4.3-19.1-0.7-27.5-5c-3.1-1.6-6.1-3.1-8.9-4.2c-9-3.3-19.6-5.5-32.3-6.6c-5.1-0.5-8.5,2.7-11.4,6.1c-1.2,1.4-2.3,3-3.4,4.5
				c-1.4,2-2.9,4.1-4.7,5.9c-2.3,2.4-4.6,3.9-7,4.4C540.7,514.1,540,514.1,539.2,514.1z"/>
		</g>
	</g>
</g>
<g>
	<path class="st2" d="M642.6,505.2c-1,0-1.8-0.1-2.5-0.2c-0.7-0.1-1.1-0.8-1-1.5c0.1-0.7,0.8-1.1,1.5-1c0.3,0,7.6,1.5,10.7-4.7
		c0.6-1.2,0.6-2.4-0.1-3.8c-3.2-7.2-21.6-16.4-44.6-22.5c-0.7-0.2-1.1-0.9-0.9-1.5c0.2-0.7,0.8-1.1,1.5-0.9
		c20,5.3,42.1,14.8,46.2,23.9c0.9,2.1,0.9,4.1,0,5.9C651,503.9,646.2,505.2,642.6,505.2z"/>
</g>
<g>
	<path class="st2" d="M541.1,467.8c-13.6,0-22.3-1.4-22.5-1.5c-0.5-0.1-0.9-0.5-1-1C499,357.6,474.7,203.5,474.4,202
		c-0.1-0.7,0.4-1.3,1-1.4c0.7-0.2,1.3,0.4,1.4,1c0.2,1.5,24.5,154.7,43,262.4c6.5,0.9,49.5,6,92.6-13.1
		c-2.8-14-34.3-173.5-53.7-234.9c-2.2-7.1-22.6-57.4-47-72.3c-6.8-4.1-31.3-17.6-62.2-17.6c-0.7,0-1.2-0.6-1.2-1.2s0.6-1.2,1.2-1.2
		c31.6,0,56.6,13.7,63.5,17.9c25,15.2,45.8,66.4,48,73.6c20.2,64.1,53.7,234.4,54,236.2c0.1,0.6-0.2,1.1-0.7,1.4
		C587,465.2,559.6,467.8,541.1,467.8z"/>
</g>
<g>
	<path class="st2" d="M651.9,493.9c-0.3,0-0.7-0.1-0.9-0.4c-0.5-0.5-0.4-1.3,0.1-1.7c0.1-0.1,1.3-1.3,1-3.4
		c-0.4-2.6-3.3-6.7-14.1-11.7c-4.9-2.3-9.6-3.8-14.1-5.2c-9.4-3.1-17.6-5.7-22.7-13.7c-0.4-0.6-0.2-1.3,0.4-1.7
		c0.6-0.4,1.3-0.2,1.7,0.4c4.6,7.3,12,9.7,21.4,12.7c4.6,1.5,9.3,3,14.4,5.3c9.6,4.4,14.8,9,15.6,13.6c0.5,3.4-1.6,5.5-1.7,5.6
		C652.5,493.8,652.2,493.9,651.9,493.9z"/>
</g>
<g>
	<path class="st2" d="M194.2,491.3c-0.7,0-1.3-0.6-1.2-1.3c0.6-21.7,3-43.5,17-56.4c13.2-12.1,27.7-19,45.7-21.6
		c0.7-0.1,1.3,0.4,1.4,1.1c0.1,0.7-0.4,1.3-1,1.4c-17.5,2.6-31.6,9.2-44.4,21c-13.3,12.3-15.7,33.5-16.3,54.7
		C195.4,490.8,194.8,491.3,194.2,491.3z"/>
</g>
<g>
	<path class="st2" d="M416.4,497.5c-75.1,0-96.7-23.4-97.6-24.4c-0.5-0.5-0.4-1.3,0.1-1.7c0.5-0.5,1.3-0.4,1.7,0.1
		c0.2,0.3,23.2,24.8,102.3,23.5c80.3-1.4,88.6-20.7,91.7-47.9c0.1-0.7,0.7-1.2,1.4-1.1c0.7,0.1,1.2,0.7,1.1,1.4
		c-3.2,28.4-11.9,48.7-94.1,50.1C420.7,497.5,418.5,497.5,416.4,497.5z"/>
</g>
<g>
	<path class="st2" d="M444.1,97.6c-0.5,0-1-0.3-1.2-0.8c-0.2-0.6,0.1-1.4,0.8-1.6c18.4-6.4,26.3-30.2,18.8-56.5
		c-2.7-9.3-7.4-15.7-14-19.1c-10.8-5.4-23.2-0.9-23.3-0.9c-0.3,0.1-0.6,0.1-0.9,0c-1.2-0.5-30.6-13.2-45.7,11.6
		c-6.6,11-6.1,19.9-5.7,22.8l14.6-1.2l5.3-9.5c0.3-0.5,0.8-0.7,1.3-0.6c0.5,0.1,0.9,0.5,1,1l1.6,9.4l33.9-1.1l2-12
		c0.1-0.6,0.6-1,1.3-1c0.6,0,1.1,0.6,1.2,1.2c0,0.2,0.7,18.5,3.5,24.4c0.3,0.6,0,1.4-0.6,1.6c-0.6,0.3-1.4,0-1.7-0.6
		c-1.5-3.2-2.5-9.4-3-14.8l-0.4,2.6c-0.1,0.6-0.6,1-1.2,1l-36,1.2c-0.6-0.1-1.2-0.4-1.3-1l-1.2-7l-3.9,7c-0.2,0.4-0.6,0.6-1,0.6
		l-16.4,1.3c-0.6,0-1.1-0.3-1.3-0.9c-0.1-0.5-2.9-11.4,5.8-25.7c15.2-25,44.3-14.4,48.4-12.8c2.5-0.8,14.1-4.2,24.8,1.1
		c7.3,3.7,12.4,10.6,15.3,20.6c7.9,27.6-0.6,52.7-20.3,59.6C444.4,97.6,444.2,97.6,444.1,97.6z"/>
</g>
<g>
	<path class="st2" d="M422.3,62.3c-0.4,0-0.7-0.2-1-0.5c-6.3-8.1-13.2-3.7-13.5-3.5c-0.6,0.4-1.3,0.2-1.7-0.4
		c-0.4-0.6-0.2-1.3,0.3-1.7c0.1-0.1,9.1-5.9,16.8,4c0.4,0.5,0.3,1.3-0.2,1.7C422.8,62.2,422.5,62.3,422.3,62.3z"/>
</g>
<g>
	<path class="st2" d="M595.3,361.8c-18.4,3.8-36-9.6-40.2-29.8c-4.2-20.2,5.5-39.6,23.9-43.4L595.3,361.8z"/>
	<path class="st2" d="M589,363.7c-16.5,0-31.2-12.7-35.1-31.4c-2.1-10.2-0.8-20.4,3.6-28.7c4.6-8.6,12.1-14.3,21.3-16.2
		c0.6-0.1,1.3,0.3,1.5,1c0.1,0.7-0.3,1.3-1,1.5c-8.4,1.7-15.4,7-19.6,14.9c-4.2,7.8-5.4,17.4-3.4,27c4.1,19.8,21.1,32.4,38.7,28.8
		c0.7-0.1,1.3,0.3,1.5,1c0.1,0.7-0.3,1.3-1,1.5C593.4,363.4,591.2,363.7,589,363.7z"/>
</g>
<g>
	<path class="st2" d="M311.5,395.4c-0.4,0-0.7-0.1-1-0.4c-0.4-0.5-0.4-1.3,0.2-1.7c7.1-5.9,9.3-19.5,6.5-26.9l-42.3-110.2
		c-4.2-10.9-16.4-18.3-30.4-18.3H83.9c-7.4,0-19.8,4.8-25.1,8.1c-0.6,0.4-1.3,0.2-1.7-0.4c-0.4-0.6-0.2-1.3,0.4-1.7
		c5.5-3.5,18.6-8.5,26.5-8.5h160.7c15,0,28.1,8,32.7,19.9l42.3,110.2c3.2,8.3,0.7,23-7.2,29.6C312.1,395.3,311.8,395.4,311.5,395.4z
		"/>
</g>
<g>
	<path class="st2" d="M277.7,407.4H117.1c-15,0-28.1-8-32.7-19.9l-11.9-30.9c-0.2-0.6,0.1-1.4,0.7-1.6c0.6-0.3,1.4,0.1,1.6,0.7
		l11.9,30.9c4.2,10.9,16.4,18.3,30.4,18.3h160.7c11.7,0,22-5,27.8-13.3c4.4-6.3,5.3-13.7,2.6-20.6l-42.3-110.2
		c-4.2-10.9-16.4-18.3-30.4-18.3H74.8c-11.7,0-22,5-27.8,13.3c-4.4,6.3-5.3,13.7-2.6,20.6L56.9,309c0.2,0.6-0.1,1.4-0.7,1.6
		c-0.6,0.3-1.3-0.1-1.6-0.7L42,277.3c-3-7.8-2-15.9,2.9-22.9c6.2-9,17.4-14.4,29.8-14.4h160.7c15,0,28.1,8,32.7,19.9l42.3,110.2
		c3,7.7,2,15.9-2.9,22.9C301.4,402,290.2,407.4,277.7,407.4z"/>
</g>
<g>
	<path class="st2" d="M171.1,339.8c-2,0-4.1-0.5-6.3-1.6c-3.9-1.9-7.4-5.5-10-9.9c-2.5-4.4-3.8-9.2-3.6-13.6c0.3-4.5,2.1-8,5.3-9.8
		c3.1-1.8,7.1-1.7,11.2,0.3c3.9,1.9,7.4,5.5,10,9.9c2.5,4.4,3.8,9.2,3.6,13.6c-0.3,4.5-2.1,8-5.3,9.8
		C174.5,339.4,172.8,339.8,171.1,339.8z M161.5,306.1c-1.3,0-2.6,0.3-3.7,0.9c-2.4,1.4-3.8,4.2-4,7.8c-0.2,3.9,0.9,8.2,3.2,12.2
		c2.3,4,5.5,7.2,8.9,8.9c3.3,1.7,6.4,1.8,8.8,0.4c2.4-1.4,3.8-4.2,4-7.8c0.2-3.9-0.9-8.2-3.2-12.2c-2.3-4-5.5-7.2-8.9-8.9
		C164.8,306.6,163.1,306.1,161.5,306.1z"/>
</g>
<g>
	<path class="st2" d="M385.8,414.2H111.6c-5.3,0-9.3-5-9.3-9.5c0-0.7,0.6-1.3,1.3-1.3s1.3,0.6,1.3,1.3c0,3.2,2.9,7,6.7,7h274.2
		c3.7,0,6.7-2.7,6.7-6.1v-4c0-3.4-3-6.1-6.7-6.1h-80.3c-0.7,0-1.3-0.6-1.3-1.3c0-0.7,0.6-1.3,1.3-1.3h80.3c5.1,0,9.3,3.9,9.3,8.7v4
		C395,410.3,390.9,414.2,385.8,414.2z"/>
</g>
<g>
	<path class="st2" d="M105.7,490.3c-0.7,0-1.2-0.6-1.2-1.2c0.2-52,40.8-77,41.3-77.2c0.6-0.3,1.3-0.2,1.7,0.4
		c0.4,0.6,0.2,1.3-0.4,1.7c-0.4,0.2-39.9,24.5-40.1,75.1C106.9,489.7,106.4,490.3,105.7,490.3z"/>
</g>
<g>
	<path class="st2" d="M473.8,426.2c-2.5,0-5-0.1-7.7-0.4c-23.7-2.2-53.5-10.9-56-11.7h-24.4c-0.7,0-1.2-0.6-1.2-1.2
		c0-0.7,0.6-1.2,1.2-1.2h24.5c0.7,0.1,31.6,9.4,56.1,11.7c24.2,2.4,43.5-7.7,43.6-7.8c0.6-0.3,1.3-0.1,1.7,0.5
		c0.3,0.6,0.1,1.4-0.5,1.7C510.5,418.2,495,426.2,473.8,426.2z"/>
</g>
<g>
	<path class="st2" d="M448,118.7c-0.6,0-1.1-0.4-1.2-0.9c-0.2-0.7,0.2-1.3,0.9-1.5c9.8-2.6,15.4-6.3,16.4-11.1
		c1.6-7.7-8.5-15.9-8.6-16c-0.5-0.4-0.6-1.2-0.2-1.7c0.4-0.5,1.2-0.6,1.7-0.2c0.5,0.4,11.4,9.3,9.4,18.4c-1.2,5.8-7.4,10.2-18.2,13
		C448.2,118.7,448.1,118.7,448,118.7z"/>
</g>
<g>
	<path class="st2" d="M517.8,147.8c-0.5,0-1-0.3-1.2-0.8c-15.7-42.4-50.7-38.4-51-38.4c-0.7,0.1-1.3-0.4-1.4-1.1
		c-0.1-0.7,0.4-1.3,1.1-1.4c0.4,0,37.3-4.2,53.7,40c0.2,0.6-0.1,1.4-0.7,1.6C518.1,147.8,518,147.8,517.8,147.8z"/>
</g>
<g>
	<path class="st2" d="M291.9,294.9c-0.2,0-0.5-0.1-0.7-0.2c-0.6-0.4-0.7-1.1-0.4-1.7c10.4-16,17.8-34.9,24.1-61.4
		c23.7-99.8,95.3-103.6,96-103.7c0.7,0,1.3,0.5,1.3,1.2c0,0.7-0.5,1.3-1.2,1.3c-0.7,0-70.5,3.8-93.7,101.7
		c-6.4,26.8-13.9,45.9-24.4,62.2C292.7,294.7,292.3,294.9,291.9,294.9z"/>
</g>
<g>
	<path class="st2" d="M344.3,395.4c-0.5,0-1-0.3-1.2-0.8c-0.3-0.6,0.1-1.4,0.7-1.6c13.8-5.4,15.4-46.5,14.3-67.5
		c-4.1-80.1-3.6-100.6,0.3-125.4c0.1-0.7,0.7-1.2,1.4-1c0.7,0.1,1.1,0.7,1,1.4c-3.8,24.5-4.4,45-0.3,124.8
		c0.3,6.4,2.7,62.6-15.9,69.9C344.6,395.4,344.5,395.4,344.3,395.4z"/>
</g>
<g>
	<path class="st2" d="M319.6,394.9c-0.4,0-0.8-0.2-1-0.5c-0.4-0.6-0.2-1.3,0.3-1.7c28.5-19.3,39.5-60.8,39.6-61.2
		c0.2-0.7,0.8-1.1,1.5-0.9c0.7,0.2,1.1,0.8,0.9,1.5c-0.1,0.4-11.3,42.8-40.6,62.6C320.1,394.8,319.8,394.9,319.6,394.9z"/>
</g>
</svg>
