<svg width="84" height="84" viewBox="0 0 84 84" fill="none" xmlns="http://www.w3.org/2000/svg">
<circle cx="42" cy="42" r="42" fill="url(#paint0_linear_177_1802)"/>
<g clip-path="url(#clip0_177_1802)">
<path d="M48.5518 25.2697L53.151 23.9563L54.4644 28.5555L49.8652 29.8689L48.5518 25.2697ZM50.5219 32.1685L55.1211 30.8552L56.4345 35.4544L51.8352 36.7678L50.5219 32.1685ZM41.6529 27.2397L46.2522 25.9264L47.5655 30.5256L42.9663 31.839L41.6529 27.2397ZM43.623 34.1386L48.2222 32.8252L49.5356 37.4245L44.9364 38.7379L43.623 34.1386Z" fill="#EEEEEE"/>
<path d="M55.4482 40.7105L57.4183 47.6094L29.8228 55.4896L24.5693 37.0926L38.3671 33.1525L37.7104 30.8529L23.9126 34.793C23.3027 34.9672 22.787 35.3765 22.4789 35.9309C22.1708 36.4853 22.0955 37.1394 22.2697 37.7493L27.5232 56.1463C27.6974 56.7562 28.1067 57.2719 28.6611 57.5801C29.2155 57.8882 29.8696 57.9634 30.4795 57.7892L39.678 55.1625L40.9914 59.7617L36.3921 61.0751L37.0488 63.3747L55.4458 58.1212L54.7891 55.8216L50.1899 57.135L48.8765 52.5357L58.075 49.909C58.6849 49.7348 59.2006 49.3255 59.5087 48.7711C59.8168 48.2167 59.8921 47.5626 59.7179 46.9527L57.7479 40.0538L55.4482 40.7105ZM47.8903 57.7917L43.291 59.105L41.9776 54.5058L46.5769 53.1924L47.8903 57.7917Z" fill="#EEEEEE"/>
</g>
<defs>
<linearGradient id="paint0_linear_177_1802" x1="116" y1="-5.5" x2="42" y2="84" gradientUnits="userSpaceOnUse">
<stop stop-color="#407BFF"/>
<stop offset="1" stop-color="#C3DFFA"/>
</linearGradient>
<clipPath id="clip0_177_1802">
<rect width="38.2648" height="38.2648" fill="white" transform="translate(18 31.5071) rotate(-15.9374)"/>
</clipPath>
</defs>
</svg>
