<svg width="78" height="78" viewBox="0 0 78 78" fill="none" xmlns="http://www.w3.org/2000/svg">
<circle cx="38.5275" cy="38.5274" r="31.0713" transform="rotate(16.2572 38.5275 38.5274)" fill="url(#paint0_linear_174_34)"/>
<path d="M41.8183 29.8597C47.8182 31.4781 52.7522 35.0936 55.7135 40.0394L58.8058 38.4859C55.3905 32.7794 49.7052 28.61 42.7995 26.7473C35.8933 24.8861 28.6769 25.5737 22.4809 28.6877L24.1858 31.5351C29.5568 28.8369 35.8185 28.2413 41.8183 29.8597ZM47.3627 45.3819C43.6563 39.1916 34.8457 36.815 28.1231 40.1922L29.828 43.0397C34.8732 40.5051 41.4888 42.2896 44.2704 46.9354L47.3627 45.3819Z" fill="#EEEEEE"/>
<path d="M53.2801 41.7251C47.9731 32.4257 35.1371 28.9633 25.2581 34.1665L26.8997 37.0416C35.1249 32.7117 45.8053 35.5926 50.2251 43.3334L53.2801 41.7251Z" fill="#EEEEEE"/>
<path d="M34.9306 51.7077C36.9368 52.2488 38.9696 51.3981 39.4711 49.8075C39.9725 48.2169 38.7527 46.4887 36.7465 45.9476C34.7404 45.4065 32.7075 46.2572 32.2061 47.8478C31.7047 49.4384 32.9245 51.1665 34.9306 51.7077Z" fill="#EEEEEE"/>
<defs>
<linearGradient id="paint0_linear_174_34" x1="3.47901" y1="-13.1753" x2="56.3003" y2="93.0886" gradientUnits="userSpaceOnUse">
<stop stop-color="#C3DFFA"/>
<stop offset="1" stop-color="#428DFC"/>
</linearGradient>
</defs>
</svg>
